<?xml version="1.0" encoding="utf-8"?>
<!-- Generator: Adobe Illustrator 18.1.0, SVG Export Plug-In . SVG Version: 6.00 Build 0)  -->
<svg version="1.1" id="Camada_1" xmlns="http://www.w3.org/2000/svg" xmlns:xlink="http://www.w3.org/1999/xlink" x="0px" y="0px"
	 width="104px" height="96px" viewBox="0 0 104 96" enable-background="new 0 0 104 96" xml:space="preserve">
<g opacity="5.000000e-02">
	<rect x="1.4" y="10.5" fill="none" width="26.4" height="26.4"/>
	<path fill="none" d="M7.2,5.3H4V4.2h3.2V5.3z"/>
	<path fill="none" d="M101,26.9h-3.2v-1.2h3.2V26.9z"/>
	<rect x="4" y="5" width="3" height="1"/>
	<rect x="97.8" y="25.7" width="3.2" height="1.2"/>
	<rect x="42" y="54" width="3" height="1"/>
	<rect x="79" y="91" width="3" height="1"/>
	<rect x="4" y="54" width="3" height="1"/>
	<rect x="75" width="11.5" height="1"/>
	<rect x="1.4" y="10.5" fill="none" width="26.4" height="26.4"/>
	<g>
		<rect x="1.4" y="10.5" fill="none" width="26.4" height="26.4"/>
		<path d="M95,31v-9h9v-1H94v10H76V21H65v11h10v17H65v10H49V49H39V27H29V11h10V0H28v10H11V0H0v10.5h0v38.8h0V60h11V49H1V38h37v49h37
			v9h1v-9h9v9h1V86H76V76H66V60h38v-1H76V32h28v-1H95z M29,1h9v9h-9V1z M1,50h9v9H1V50z M1,1h9v9H1V1z M28,37H1V11h27V37z M38,37h-9
			v-9h9V37z M39,50h9v9h-9V50z M65,86H39V60h26V86z M75,77v9h-9v-9H75z M75,59h-9v-9h9V59z M75,31h-9v-9h9V31z"/>
	</g>
</g>
</svg>
