<?xml version="1.0" encoding="utf-8"?>
<!-- Generator: Adobe Illustrator 20.1.0, SVG Export Plug-In . SVG Version: 6.00 Build 0)  -->
<svg version="1.1" id="Capa_1" xmlns="http://www.w3.org/2000/svg" xmlns:xlink="http://www.w3.org/1999/xlink" x="0px" y="0px"
	 viewBox="0 0 382.1 382.1" style="enable-background:new 0 0 382.1 382.1;" xml:space="preserve">
<style type="text/css">
	.st0{fill:#FFFFFF;}
</style>
<path class="st0" d="M261.2,121.2H121c-12.1,0-21.9,9.4-21.9,21v97.8c0,11.6,9.8,21,21.9,21h140.3c12,0,21.9-9.4,21.9-21v-97.8
	C283.1,130.6,273.3,121.2,261.2,121.2z M261.2,242.4H121c-1.8,0-3.3-1.2-3.3-2.5v-84.8l63.5,53.6c1.3,1.1,2.9,1.7,4.7,1.7h10.7
	c1.7,0,3.4-0.6,4.7-1.7l63.5-53.6V240C264.6,241.2,263,242.4,261.2,242.4z M191.1,192l-61.7-52.3h123.4L191.1,192z"/>
</svg>
