<?xml version="1.0" encoding="utf-8"?>
<!-- Generator: Adobe Illustrator 16.0.0, SVG Export Plug-In . SVG Version: 6.00 Build 0)  -->
<!DOCTYPE svg PUBLIC "-//W3C//DTD SVG 1.1//EN" "http://www.w3.org/Graphics/SVG/1.1/DTD/svg11.dtd">
<svg version="1.1" xmlns="http://www.w3.org/2000/svg" xmlns:xlink="http://www.w3.org/1999/xlink" x="0px" y="0px" width="80px"
	 height="600px" viewBox="0.5 0.5 80 600" enable-background="new 0.5 0.5 80 600" xml:space="preserve">
<g id="Layer_1">
	<path fill="#FFFFFF" d="M28.607,264.5h23.788c2.263,0,4.104,1.848,4.104,4.107v23.787c0,2.26-1.842,4.105-4.104,4.105H28.607
		c-2.258,0-4.107-1.846-4.107-4.105v-23.787C24.5,266.348,26.349,264.5,28.607,264.5z M47.816,268.055
		c-0.797,0-1.445,0.645-1.445,1.441v3.448c0,0.794,0.648,1.438,1.445,1.438h3.612c0.794,0,1.442-0.645,1.442-1.438v-3.448
		c0-0.797-0.648-1.441-1.442-1.441H47.816z M52.886,278.031H50.07c0.266,0.873,0.41,1.793,0.41,2.746
		c0,5.325-4.453,9.641-9.951,9.641c-5.492,0-9.947-4.315-9.947-9.641c0-0.953,0.146-1.873,0.412-2.746h-2.938v13.523
		c0,0.699,0.574,1.265,1.271,1.265h22.287c0.7,0,1.271-0.565,1.271-1.265V278.031z M40.529,274.199c-3.549,0-6.425,2.79-6.425,6.234
		c0,3.437,2.876,6.225,6.425,6.225c3.553,0,6.432-2.788,6.432-6.225C46.961,276.989,44.082,274.199,40.529,274.199z"/>
	<path fill="#FFFFFF" d="M47.604,161.902l0.704-5.686h-5.421v-3.635c0-1.643,0.443-2.771,2.716-2.771H48.5v-5.085
		c-0.501-0.066-2.222-0.226-4.224-0.226c-4.187,0-7.048,2.655-7.048,7.521v4.196H32.5v5.686h4.729V176.5h5.658v-14.598H47.604z"/>
	<g>
		<path fill="#FFFFFF" d="M25.025,35.126h6.64V56.5h-6.64V35.126z M28.346,24.5c2.121,0,3.841,1.728,3.841,3.853
			s-1.72,3.852-3.841,3.852c-2.129,0-3.846-1.727-3.846-3.852S26.217,24.5,28.346,24.5"/>
		<path fill="#FFFFFF" d="M35.824,35.126h6.361v2.92h0.089c0.884-1.681,3.05-3.451,6.274-3.451c6.713,0,7.951,4.424,7.951,10.181
			V56.5h-6.624V46.107c0-2.48-0.052-5.669-3.45-5.669c-3.449,0-3.975,2.7-3.975,5.487V56.5h-6.627V35.126z"/>
	</g>
	<path fill="#FFFFFF" d="M56.5,511.582c-1.177,0.519-2.441,0.874-3.77,1.031c1.355-0.812,2.398-2.096,2.883-3.632
		c-1.268,0.753-2.669,1.304-4.165,1.595c-1.197-1.275-2.909-2.076-4.79-2.076c-3.629,0-6.568,2.942-6.568,6.57
		c0,0.512,0.059,1.012,0.17,1.488c-5.459-0.27-10.293-2.882-13.533-6.853c-0.562,0.969-0.887,2.095-0.887,3.299
		c0,2.274,1.159,4.288,2.917,5.462c-1.075-0.033-2.086-0.33-2.968-0.819v0.082c0,3.179,2.26,5.831,5.262,6.436
		c-0.549,0.15-1.131,0.23-1.729,0.23c-0.422,0-0.833-0.04-1.233-0.119c0.836,2.61,3.258,4.503,6.13,4.557
		c-2.245,1.763-5.076,2.817-8.153,2.817c-0.528,0-1.051-0.037-1.565-0.099c2.905,1.863,6.357,2.948,10.066,2.948
		c12.072,0,18.68-10,18.68-18.672c0-0.283-0.01-0.57-0.022-0.849C54.504,514.057,55.621,512.898,56.5,511.582z"/>
	<path fill="#FFFFFF" d="M40.498,384.5c-8.835,0-15.998,7.166-15.998,16.002c0,6.551,3.939,12.18,9.578,14.656
		c-0.047-1.119-0.012-2.46,0.277-3.676c0.305-1.303,2.058-8.72,2.058-8.72s-0.511-1.022-0.511-2.532
		c0-2.369,1.374-4.141,3.084-4.141c1.456,0,2.159,1.094,2.159,2.398c0,1.465-0.932,3.654-1.413,5.682
		c-0.402,1.7,0.851,3.082,2.525,3.082c3.032,0,5.074-3.891,5.074-8.507c0-3.508-2.361-6.132-6.658-6.132
		c-4.854,0-7.878,3.616-7.878,7.664c0,1.391,0.414,2.376,1.055,3.139c0.298,0.346,0.34,0.486,0.229,0.887
		c-0.072,0.299-0.25,1.006-0.323,1.289c-0.107,0.404-0.436,0.549-0.802,0.398c-2.233-0.912-3.274-3.361-3.274-6.112
		c0-4.546,3.831-9.998,11.433-9.998c6.106,0,10.129,4.421,10.129,9.17c0,6.274-3.488,10.961-8.629,10.961
		c-1.731,0-3.357-0.93-3.91-1.993c0,0-0.932,3.688-1.127,4.4c-0.34,1.234-1.006,2.469-1.611,3.428
		c1.438,0.424,2.959,0.654,4.533,0.654c8.838,0,16.002-7.161,16.002-15.998C56.5,391.666,49.336,384.5,40.498,384.5z"/>
</g>
<g id="Layer_2" display="none">
	<rect display="inline" opacity="0.2" fill="#FFFFFF" enable-background="new    " width="80" height="120"/>
	<rect y="120" display="inline" opacity="0.2" fill="#FFFFFF" enable-background="new    " width="80" height="120"/>
	<rect y="240" display="inline" opacity="0.2" fill="#FFFFFF" enable-background="new    " width="80" height="120"/>
	<rect y="360" display="inline" opacity="0.2" fill="#FFFFFF" enable-background="new    " width="80" height="120"/>
	<rect y="360" display="inline" opacity="0.2" fill="#FFFFFF" enable-background="new    " width="80" height="120"/>
	<rect y="480" display="inline" opacity="0.2" fill="#FFFFFF" enable-background="new    " width="80" height="120"/>
	<rect display="inline" fill="#FFFFFF" width="80" height="80"/>
	<rect y="120" display="inline" fill="#FFFFFF" width="80" height="80"/>
	<rect y="240.124" display="inline" fill="#FFFFFF" width="80" height="80"/>
	<rect y="360" display="inline" fill="#FFFFFF" width="80" height="80"/>
	<rect x="-0.676" y="480" display="inline" fill="#FFFFFF" width="80" height="80"/>
</g>
</svg>
